# xmcd
#
# Track frame offsets:
#	150
#	23002
#	37690
#	55077
#	72362
#	84980
#	103380
#	116782
#	133892
#	145695
#	156337
#	178895
#	196125
#	214337
#	230960
#
# Disc length: 3241
#
# Revision: 5
# Processed by: cddbd v1.5.1PL0 Copyright (c) Steve Scherf et al.
# Submitted via: CDex 1.51
# Normalized: r4:DSETVAR1
#
DISCID=dc0ca70f
DTITLE=Various Artist - Blues Story n°19
DYEAR=1998
DGENRE=Blues
TTITLE0=ALBERT COLLINS and THE ICEBREAKERS - Tired Man (Live)
TTITLE1=LUCKY PETERSON - Don't Cloud Up On Me
TTITLE2=HOUND DOG TAYLOR and THE HOUSEROCKERS - She's Gone
TTITLE3=CLARENCE "GATEMOUTH" BROWN - Digging New Ground
TTITLE4=KOKO TAYLOR - Trying To Make A Living
TTITLE5=CAREY BELL - Lonesome Stranger
TTITLE6=BOB MARGOLIN - The Window
TTITLE7=BIG WALTER HORTON - Have A Good Time
TTITLE8=PROFESSOR LONGHAIR - You're Driving Me Crazy
TTITLE9=JOHNNY WINTER - Evil On My Mind
TTITLE10=ROY BUCHANAN - Chicago Smokeschop
TTITLE11=MICHAEL HILL'S BLUES MOB - Soul Emergency
TTITLE12=LONNIE BROOKS - Hush Mouth Money
TTITLE13=THE KINSEY REPORT - River's Invitation
TTITLE14=JAMES COTTON - High Compression
EXTD=YEAR: 1998
EXTT0=
EXTT1=
EXTT2=
EXTT3=
EXTT4=
EXTT5=
EXTT6=
EXTT7=
EXTT8=
EXTT9=
EXTT10=
EXTT11=
EXTT12=
EXTT13=
EXTT14=
PLAYORDER=
